<?xml version="1.0" encoding="UTF-8" standalone="no"?>
<!DOCTYPE svg PUBLIC "-//W3C//DTD SVG 1.1//EN" "http://www.w3.org/Graphics/SVG/1.1/DTD/svg11.dtd">
<svg width="100%" height="100%" viewBox="0 0 4400 960" version="1.1" xmlns="http://www.w3.org/2000/svg" xmlns:xlink="http://www.w3.org/1999/xlink" xml:space="preserve" xmlns:serif="http://www.serif.com/" style="fill-rule:evenodd;clip-rule:evenodd;stroke-linejoin:round;stroke-miterlimit:2;">
    <g transform="matrix(24.3602,0,0,24.3602,-910.554,-613.661)">
        <g>
            <path d="M51.818,45.239L48.657,45.239L47.401,41.97L41.649,41.97L40.461,45.239L37.379,45.239L42.984,30.849L46.056,30.849L51.818,45.239ZM46.468,39.546L44.486,34.206L42.542,39.546L46.468,39.546Z" style="fill:white;fill-rule:nonzero;"/>
            <path d="M55.98,45.239L53.222,45.239L53.222,34.814L55.784,34.814L55.784,36.297C56.222,35.596 56.617,35.135 56.967,34.913C57.317,34.69 57.714,34.579 58.159,34.579C58.787,34.579 59.393,34.752 59.975,35.099L59.121,37.504C58.657,37.203 58.225,37.052 57.826,37.052C57.439,37.052 57.112,37.159 56.844,37.371C56.576,37.584 56.365,37.969 56.211,38.525C56.057,39.081 55.98,40.246 55.98,42.019L55.98,45.239Z" style="fill:white;fill-rule:nonzero;"/>
            <path d="M65.943,34.814L65.943,37.013L64.059,37.013L64.059,41.214C64.059,42.065 64.077,42.561 64.113,42.702C64.149,42.842 64.23,42.958 64.358,43.05C64.486,43.142 64.641,43.187 64.824,43.187C65.079,43.187 65.449,43.099 65.933,42.922L66.169,45.062C65.528,45.337 64.801,45.475 63.99,45.475C63.493,45.475 63.044,45.391 62.645,45.224C62.246,45.057 61.953,44.841 61.767,44.576C61.58,44.311 61.451,43.953 61.379,43.502C61.32,43.181 61.291,42.533 61.291,41.558L61.291,37.013L60.024,37.013L60.024,34.814L61.291,34.814L61.291,32.743L64.059,31.133L64.059,34.814L65.943,34.814Z" style="fill:white;fill-rule:nonzero;"/>
            <path d="M83.298,44.886C83.298,44.951 83.277,45.01 83.234,45.062C83.192,45.115 83.121,45.157 83.023,45.19C82.925,45.223 82.794,45.249 82.63,45.268C82.467,45.288 82.261,45.298 82.012,45.298C81.757,45.298 81.546,45.288 81.379,45.268C81.212,45.249 81.081,45.223 80.986,45.19C80.891,45.157 80.823,45.115 80.78,45.062C80.738,45.01 80.716,44.951 80.716,44.886L80.716,39.752L75.965,39.752L75.965,44.886C75.965,44.951 75.946,45.01 75.906,45.062C75.867,45.115 75.799,45.157 75.7,45.19C75.602,45.223 75.471,45.249 75.308,45.268C75.144,45.288 74.935,45.298 74.679,45.298C74.431,45.298 74.223,45.288 74.056,45.268C73.889,45.249 73.757,45.223 73.659,45.19C73.56,45.157 73.49,45.115 73.448,45.062C73.405,45.01 73.384,44.951 73.384,44.886L73.384,32.89C73.384,32.825 73.405,32.766 73.448,32.714C73.49,32.661 73.56,32.619 73.659,32.586C73.757,32.553 73.889,32.527 74.056,32.508C74.223,32.488 74.431,32.478 74.679,32.478C74.935,32.478 75.144,32.488 75.308,32.508C75.471,32.527 75.602,32.553 75.7,32.586C75.799,32.619 75.867,32.661 75.906,32.714C75.946,32.766 75.965,32.825 75.965,32.89L75.965,37.553L80.716,37.553L80.716,32.89C80.716,32.825 80.738,32.766 80.78,32.714C80.823,32.661 80.891,32.619 80.986,32.586C81.081,32.553 81.212,32.527 81.379,32.508C81.546,32.488 81.757,32.478 82.012,32.478C82.261,32.478 82.467,32.488 82.63,32.508C82.794,32.527 82.925,32.553 83.023,32.586C83.121,32.619 83.192,32.661 83.234,32.714C83.277,32.766 83.298,32.825 83.298,32.89L83.298,44.886Z" style="fill:white;fill-rule:nonzero;"/>
            <path d="M94.223,44.905C94.223,44.971 94.207,45.028 94.174,45.077C94.141,45.126 94.084,45.167 94.002,45.2C93.92,45.232 93.812,45.257 93.678,45.273C93.544,45.29 93.376,45.298 93.173,45.298C92.957,45.298 92.782,45.29 92.648,45.273C92.513,45.257 92.407,45.232 92.329,45.2C92.25,45.167 92.194,45.126 92.162,45.077C92.129,45.028 92.113,44.971 92.113,44.905L92.113,43.894C91.628,44.418 91.136,44.81 90.635,45.072C90.135,45.334 89.616,45.465 89.079,45.465C88.477,45.465 87.972,45.367 87.563,45.17C87.154,44.974 86.823,44.706 86.572,44.365C86.32,44.025 86.14,43.631 86.032,43.182C85.924,42.734 85.87,42.176 85.87,41.509L85.87,36.149C85.87,36.084 85.888,36.027 85.924,35.978C85.96,35.929 86.025,35.888 86.12,35.855C86.215,35.822 86.342,35.798 86.503,35.781C86.663,35.765 86.861,35.757 87.097,35.757C87.339,35.757 87.538,35.765 87.695,35.781C87.852,35.798 87.978,35.822 88.073,35.855C88.168,35.888 88.235,35.929 88.275,35.978C88.314,36.027 88.333,36.084 88.333,36.149L88.333,41.097C88.333,41.555 88.363,41.905 88.422,42.147C88.481,42.389 88.571,42.597 88.692,42.77C88.813,42.944 88.967,43.078 89.153,43.173C89.34,43.268 89.557,43.315 89.806,43.315C90.12,43.315 90.436,43.2 90.753,42.971C91.07,42.742 91.409,42.409 91.769,41.97L91.769,36.149C91.769,36.084 91.787,36.027 91.823,35.978C91.859,35.929 91.924,35.888 92.019,35.855C92.114,35.822 92.24,35.798 92.397,35.781C92.554,35.765 92.754,35.757 92.996,35.757C93.238,35.757 93.438,35.765 93.595,35.781C93.752,35.798 93.876,35.822 93.968,35.855C94.059,35.888 94.125,35.929 94.164,35.978C94.203,36.027 94.223,36.084 94.223,36.149L94.223,44.905Z" style="fill:white;fill-rule:nonzero;"/>
            <path d="M105.521,40.409C105.521,41.188 105.436,41.888 105.266,42.51C105.096,43.132 104.85,43.662 104.53,44.1C104.209,44.539 103.815,44.876 103.347,45.111C102.879,45.347 102.347,45.465 101.752,45.465C101.457,45.465 101.183,45.437 100.927,45.381C100.672,45.326 100.428,45.236 100.196,45.111C99.964,44.987 99.735,44.83 99.509,44.64C99.283,44.45 99.052,44.221 98.817,43.953L98.817,44.905C98.817,44.977 98.799,45.038 98.763,45.087C98.727,45.136 98.668,45.177 98.586,45.209C98.504,45.242 98.395,45.265 98.257,45.278C98.12,45.291 97.953,45.298 97.757,45.298C97.554,45.298 97.385,45.291 97.251,45.278C97.117,45.265 97.009,45.242 96.927,45.209C96.846,45.177 96.788,45.136 96.756,45.087C96.723,45.038 96.706,44.977 96.706,44.905L96.706,31.997C96.706,31.932 96.726,31.873 96.765,31.821C96.805,31.768 96.872,31.724 96.967,31.688C97.061,31.652 97.187,31.624 97.345,31.605C97.502,31.585 97.701,31.575 97.943,31.575C98.185,31.575 98.385,31.585 98.542,31.605C98.699,31.624 98.825,31.652 98.92,31.688C99.015,31.724 99.082,31.768 99.121,31.821C99.16,31.873 99.18,31.932 99.18,31.997L99.18,36.836C99.403,36.614 99.625,36.424 99.848,36.267C100.07,36.11 100.293,35.981 100.515,35.879C100.738,35.778 100.967,35.704 101.202,35.659C101.438,35.613 101.686,35.59 101.948,35.59C102.596,35.59 103.146,35.719 103.597,35.978C104.049,36.236 104.417,36.585 104.702,37.023C104.986,37.461 105.194,37.973 105.325,38.559C105.456,39.145 105.521,39.762 105.521,40.409ZM102.959,40.586C102.959,40.213 102.931,39.853 102.876,39.506C102.82,39.16 102.724,38.852 102.586,38.584C102.449,38.315 102.27,38.101 102.051,37.941C101.832,37.78 101.556,37.7 101.222,37.7C101.058,37.7 100.898,37.723 100.741,37.769C100.584,37.815 100.422,37.893 100.255,38.005C100.088,38.116 99.916,38.26 99.74,38.436C99.563,38.613 99.376,38.832 99.18,39.094L99.18,42C99.527,42.445 99.859,42.783 100.176,43.016C100.494,43.248 100.826,43.364 101.173,43.364C101.493,43.364 101.765,43.282 101.987,43.119C102.21,42.955 102.395,42.742 102.542,42.481C102.689,42.219 102.796,41.921 102.861,41.587C102.927,41.254 102.959,40.92 102.959,40.586Z" style="fill:white;fill-rule:nonzero;"/>
            <path d="M112.569,40.557L115.396,40.282C115.566,41.231 115.911,41.928 116.432,42.373C116.952,42.818 117.654,43.04 118.537,43.04C119.473,43.04 120.178,42.842 120.652,42.446C121.127,42.05 121.364,41.587 121.364,41.057C121.364,40.717 121.264,40.427 121.065,40.189C120.865,39.95 120.517,39.742 120.019,39.565C119.679,39.448 118.904,39.238 117.693,38.937C116.136,38.551 115.043,38.077 114.414,37.514C113.531,36.722 113.089,35.757 113.089,34.618C113.089,33.885 113.297,33.2 113.713,32.562C114.128,31.924 114.727,31.438 115.509,31.104C116.291,30.77 117.235,30.603 118.341,30.603C120.147,30.603 121.506,30.999 122.419,31.791C123.332,32.583 123.812,33.64 123.857,34.962L120.952,35.089C120.828,34.35 120.561,33.818 120.152,33.494C119.743,33.17 119.129,33.008 118.311,33.008C117.467,33.008 116.806,33.182 116.329,33.529C116.021,33.751 115.867,34.049 115.867,34.422C115.867,34.762 116.011,35.053 116.299,35.295C116.666,35.603 117.556,35.924 118.969,36.257C120.383,36.591 121.428,36.936 122.105,37.293C122.783,37.65 123.313,38.137 123.695,38.756C124.078,39.374 124.27,40.138 124.27,41.048C124.27,41.872 124.041,42.644 123.583,43.364C123.124,44.084 122.477,44.619 121.639,44.969C120.801,45.319 119.758,45.494 118.508,45.494C116.688,45.494 115.291,45.074 114.316,44.233C113.341,43.392 112.759,42.167 112.569,40.557Z" style="fill:white;fill-rule:nonzero;"/>
            <path d="M131.475,34.814L131.475,37.013L129.59,37.013L129.59,41.214C129.59,42.065 129.608,42.561 129.644,42.702C129.68,42.842 129.762,42.958 129.889,43.05C130.017,43.142 130.172,43.187 130.356,43.187C130.611,43.187 130.981,43.099 131.465,42.922L131.7,45.062C131.059,45.337 130.333,45.475 129.521,45.475C129.024,45.475 128.576,45.391 128.176,45.224C127.777,45.057 127.484,44.841 127.298,44.576C127.111,44.311 126.982,43.953 126.91,43.502C126.851,43.181 126.822,42.533 126.822,41.558L126.822,37.013L125.556,37.013L125.556,34.814L126.822,34.814L126.822,32.743L129.59,31.133L129.59,34.814L131.475,34.814Z" style="fill:white;fill-rule:nonzero;"/>
            <path d="M140.25,45.239L140.25,43.678C139.87,44.234 139.372,44.673 138.753,44.994C138.135,45.314 137.482,45.475 136.795,45.475C136.095,45.475 135.466,45.321 134.91,45.013C134.354,44.706 133.951,44.274 133.703,43.717C133.454,43.161 133.33,42.392 133.33,41.411L133.33,34.814L136.088,34.814L136.088,39.605C136.088,41.07 136.139,41.969 136.24,42.299C136.342,42.63 136.527,42.891 136.795,43.084C137.063,43.277 137.403,43.374 137.816,43.374C138.287,43.374 138.709,43.245 139.082,42.986C139.455,42.728 139.71,42.407 139.848,42.024C139.985,41.641 140.054,40.704 140.054,39.212L140.054,34.814L142.812,34.814L142.812,45.239L140.25,45.239Z" style="fill:white;fill-rule:nonzero;"/>
            <path d="M155.229,45.239L152.667,45.239L152.667,43.708C152.242,44.303 151.74,44.747 151.16,45.038C150.581,45.329 149.997,45.475 149.408,45.475C148.211,45.475 147.185,44.992 146.331,44.027C145.477,43.061 145.05,41.715 145.05,39.987C145.05,38.221 145.466,36.877 146.297,35.958C147.128,35.039 148.178,34.579 149.448,34.579C150.612,34.579 151.62,35.063 152.471,36.032L152.471,30.849L155.229,30.849L155.229,45.239ZM147.867,39.801C147.867,40.913 148.021,41.718 148.329,42.216C148.774,42.935 149.395,43.295 150.194,43.295C150.828,43.295 151.368,43.025 151.813,42.486C152.258,41.946 152.481,41.139 152.481,40.066C152.481,38.868 152.265,38.006 151.833,37.479C151.401,36.953 150.848,36.689 150.174,36.689C149.52,36.689 148.971,36.949 148.53,37.47C148.088,37.99 147.867,38.767 147.867,39.801Z" style="fill:white;fill-rule:nonzero;"/>
            <path d="M157.948,33.401L157.948,30.849L160.706,30.849L160.706,33.401L157.948,33.401ZM157.948,45.239L157.948,34.814L160.706,34.814L160.706,45.239L157.948,45.239Z" style="fill:white;fill-rule:nonzero;"/>
            <path d="M162.895,39.879C162.895,38.963 163.121,38.077 163.573,37.219C164.024,36.362 164.664,35.708 165.492,35.256C166.32,34.805 167.244,34.579 168.265,34.579C169.842,34.579 171.134,35.091 172.142,36.115C173.15,37.139 173.654,38.433 173.654,39.997C173.654,41.574 173.145,42.881 172.127,43.919C171.11,44.956 169.829,45.475 168.284,45.475C167.329,45.475 166.418,45.259 165.551,44.827C164.684,44.395 164.024,43.762 163.573,42.927C163.121,42.093 162.895,41.077 162.895,39.879ZM165.722,40.027C165.722,41.061 165.968,41.852 166.459,42.402C166.949,42.952 167.555,43.227 168.275,43.227C168.994,43.227 169.598,42.952 170.086,42.402C170.573,41.852 170.817,41.054 170.817,40.007C170.817,38.986 170.573,38.201 170.086,37.651C169.598,37.102 168.994,36.827 168.275,36.827C167.555,36.827 166.949,37.102 166.459,37.651C165.968,38.201 165.722,38.993 165.722,40.027Z" style="fill:white;fill-rule:nonzero;"/>
            <path d="M181.497,45.239L181.497,30.967L184.402,30.967L184.402,42.814L191.627,42.814L191.627,45.239L181.497,45.239Z" style="fill:white;fill-rule:nonzero;"/>
            <path d="M193.776,45.239L193.776,30.967L196.682,30.967L196.682,42.814L203.906,42.814L203.906,45.239L193.776,45.239Z" style="fill:white;fill-rule:nonzero;"/>
            <path d="M215.185,39.948L218.002,40.841C217.57,42.412 216.852,43.578 215.848,44.341C214.843,45.103 213.569,45.484 212.024,45.484C210.113,45.484 208.543,44.832 207.313,43.526C206.082,42.221 205.467,40.436 205.467,38.171C205.467,35.776 206.086,33.916 207.322,32.591C208.559,31.266 210.185,30.603 212.201,30.603C213.961,30.603 215.391,31.124 216.491,32.164C217.145,32.779 217.636,33.663 217.963,34.814L215.087,35.502C214.917,34.756 214.562,34.167 214.022,33.735C213.482,33.303 212.826,33.087 212.054,33.087C210.987,33.087 210.122,33.47 209.457,34.235C208.793,35.001 208.461,36.241 208.461,37.956C208.461,39.775 208.788,41.07 209.443,41.843C210.097,42.615 210.948,43.001 211.995,43.001C212.767,43.001 213.431,42.756 213.987,42.265C214.544,41.774 214.943,41.002 215.185,39.948Z" style="fill:white;fill-rule:nonzero;"/>
        </g>
    </g>
    <g transform="matrix(24.7754,0,0,28.4877,-1194.4,-670.307)">
        <path d="M49,46L49,50C49,50 186.55,54.944 202,50L202,46C184.297,40.974 49,46 49,46Z" style="fill:white;"/>
    </g>
    <g transform="matrix(24.7754,0,0,28.4877,-1194.4,-670.307)">
        <path d="M205,46C205,46 212.667,43.498 216,43.766C219.333,44.034 224.667,46.606 225,47.606C225.333,48.606 220,48.101 218,49C216.28,49.773 214.86,51.887 213,52.197C211,52.531 205,50 205,50L205,46Z" style="fill:white;"/>
    </g>
    <g transform="matrix(14.6162,0,0,15.3342,1227.86,-109.328)">
        <g>
            <g transform="matrix(1,0,0,1,63.417,55.558)">
                <text x="0px" y="0px" style="font-family:'BrushScriptMT', 'Brush Script MT', cursive;font-style:italic;font-size:11.111px;">P</text>
            </g>
            <g transform="matrix(1,0,0,1,70.085,55.558)">
                <text x="0px" y="0px" style="font-family:'BrushScriptMT', 'Brush Script MT', cursive;font-style:italic;font-size:11.111px;">aint</text>
            </g>
        </g>
    </g>
    <g transform="matrix(13.0781,0,0,13.7205,2572.43,733.73)">
        <text x="0px" y="0px" style="font-family:'BrushScriptMT', 'Brush Script MT', cursive;font-style:italic;font-size:11.111px;">Color</text>
    </g>
    <g transform="matrix(13.3653,0,0,14.0219,2939.7,735.917)">
        <text x="0px" y="0px" style="font-family:'BrushScriptMT', 'Brush Script MT', cursive;font-style:italic;font-size:11.111px;">Create</text>
    </g>
</svg>
